<?xml version="1.0" encoding="UTF-8"?>
<!-- Generated by Pixelmator Pro 3.7 -->
<svg width="32" height="27" viewBox="0 0 32 27" xmlns="http://www.w3.org/2000/svg">
    <path id="path1" fill="#808080" fill-rule="evenodd" stroke="none" d="M 4 21 C 4 25.021727 6.030679 27 10 27 C 11 27 11.980522 26.328163 12 25 C 12.011523 24.214233 11.727204 24.200315 11 24 C 10.8485 23.953773 11.196952 24.015409 11 24 C 9.257741 23.815094 8 23.049385 8 21 L 8 18 C 8 15.765706 6.575514 14.277362 4 14 L 4 13 C 6.575514 12.707233 8 12.218884 8 10 L 8 6 C 8 3.935209 9.257741 3.184906 11 3 C 11.196952 2.969181 10.83335 3.046223 11 3 C 11.727203 2.799683 12 2.785856 12 2 C 12 1.306599 12 0 10 0 C 6.030679 0 4 1.978275 4 6 L 4 8 C 4 9.849068 3.636209 10.691822 2 11 C 0.954645 11.184907 0 12.644014 0 14 C 0 15.27894 0.939494 15.799684 2 16 C 3.666509 16.29277 4 17.150932 4 19 Z M 28 21 C 28 25.021727 26.969397 27 23 27 C 22 27 19.982605 26.180717 20 25 C 20.011578 24.214233 20.272781 24.200315 21 24 C 21.151503 23.953773 21.803045 24.015409 22 24 C 23.742292 23.815092 24 23.049385 24 21 L 24 18 C 24 15.765705 25.42444 14.277361 28 14 L 28 13 C 25.42444 12.707232 24 12.218884 24 10 L 24 6 C 24 3.935207 23.742292 3.184906 22 3 C 21.803045 2.969181 21.166653 3.046223 21 3 C 20.272781 2.799683 20 2.785856 20 2 C 20 1.306601 21 0 23 0 C 26.969397 0 28 1.978275 28 6 L 28 8 C 28 9.849072 29.36376 10.691822 31 11 C 32.045376 11.184905 32 12.644013 32 14 C 32 15.27894 32.060524 15.799684 31 16 C 29.333462 16.29277 28 17.150928 28 19 Z M 13 15 C 13 14 14 12 16 12 C 19 12 18.997412 13.000002 19 15 C 19.003906 18.01944 18.506605 19.549763 18 21 C 17.339689 22.890247 14.960292 25.573542 14 25 C 13.563548 24.739326 15.450807 23.162815 16 21 C 16.936579 17.311596 16 17 16 17 C 16 17 13 19 13 15 Z M 15.769231 9.5 C 14.899346 9.674513 14.484365 9.138208 13.923077 8.576923 C 13.361789 8.015636 13 7.068348 13 6.26923 C 13 5.470106 13.361789 4.993872 13.923077 4.423077 C 14.484365 3.852278 14.970109 3.5 15.769231 3.5 C 16.568356 3.5 17.506119 3.852278 18.076923 4.423077 C 18.64772 4.993872 19 5.470106 19 6.26923 C 19 7.068348 18.64772 8.015636 18.076923 8.576923 C 17.506119 9.138208 16.568356 9.5 15.769231 9.5 Z"/>
</svg>
